<svg width="22" height="22" viewBox="0 0 22 22" fill="none" xmlns="http://www.w3.org/2000/svg">
<path d="M20.8423 18.3306V19.4885C20.8423 20.7622 19.8002 21.8043 18.5265 21.8043H2.31597C1.03071 21.8043 0.000183105 20.7622 0.000183105 19.4885V3.27801C0.000183105 2.00432 1.03071 0.962219 2.31597 0.962219H18.5265C19.8002 0.962219 20.8423 2.00432 20.8423 3.27801V4.4359H10.4212C9.13597 4.4359 8.10545 5.47801 8.10545 6.75169V16.0149C8.10545 17.2885 9.13597 18.3306 10.4212 18.3306H20.8423ZM10.4212 16.0149H22.0002V6.75169H10.4212V16.0149ZM15.0528 13.1201C14.0918 13.1201 13.316 12.3443 13.316 11.3833C13.316 10.4222 14.0918 9.64643 15.0528 9.64643C16.0139 9.64643 16.7897 10.4222 16.7897 11.3833C16.7897 12.3443 16.0139 13.1201 15.0528 13.1201Z" fill="white"/>
</svg>
