<svg width="17" height="17" viewBox="0 0 17 17" fill="none" xmlns="http://www.w3.org/2000/svg">
<path fill-rule="evenodd" clip-rule="evenodd" d="M8.76978 0.575012C4.34978 0.575012 0.769775 4.14077 0.769775 8.54319C0.769775 12.0691 3.05978 15.0472 6.23978 16.103C6.63978 16.1727 6.78978 15.9337 6.78978 15.7245C6.78978 15.5353 6.77978 14.9078 6.77978 14.2404C4.76978 14.609 4.24978 13.7524 4.08978 13.3042C3.99978 13.0751 3.60978 12.3679 3.26978 12.1787C2.98978 12.0293 2.58978 11.6607 3.25978 11.6508C3.88978 11.6408 4.33978 12.2285 4.48978 12.4675C5.20978 13.6727 6.35978 13.3341 6.81978 13.1249C6.88978 12.607 7.09978 12.2584 7.32978 12.0592C5.54978 11.8599 3.68978 11.1727 3.68978 8.12486C3.68978 7.25832 3.99978 6.54119 4.50978 5.98342C4.42978 5.78421 4.14978 4.96747 4.58978 3.87185C4.58978 3.87185 5.25978 3.66268 6.78978 4.68859C7.42978 4.5093 8.10978 4.41966 8.78978 4.41966C9.46978 4.41966 10.1498 4.5093 10.7898 4.68859C12.3198 3.65272 12.9898 3.87185 12.9898 3.87185C13.4298 4.96747 13.1498 5.78421 13.0698 5.98342C13.5798 6.54119 13.8898 7.24836 13.8898 8.12486C13.8898 11.1827 12.0198 11.8599 10.2398 12.0592C10.5298 12.3082 10.7798 12.7863 10.7798 13.5333C10.7798 14.599 10.7698 15.4556 10.7698 15.7245C10.7698 15.9337 10.9198 16.1827 11.3198 16.103C14.4798 15.0472 16.7698 12.0592 16.7698 8.54319C16.7698 4.14077 13.1898 0.575012 8.76978 0.575012Z" fill="white" fill-opacity="0.75"/>
</svg>
