<svg width="22" height="13" viewBox="0 0 22 13" fill="none" xmlns="http://www.w3.org/2000/svg">
<path d="M11.6502 4.96222C10.8302 2.63222 8.61018 0.962219 6.00018 0.962219C2.69018 0.962219 0.000183105 3.65222 0.000183105 6.96222C0.000183105 10.2722 2.69018 12.9622 6.00018 12.9622C8.61018 12.9622 10.8302 11.2922 11.6502 8.96222H16.0002V12.9622H20.0002V8.96222H22.0002V4.96222H11.6502ZM6.00018 8.96222C4.90018 8.96222 4.00018 8.06222 4.00018 6.96222C4.00018 5.86222 4.90018 4.96222 6.00018 4.96222C7.10018 4.96222 8.00018 5.86222 8.00018 6.96222C8.00018 8.06222 7.10018 8.96222 6.00018 8.96222Z" fill="white"/>
</svg>
