<svg width="17" height="16" viewBox="0 0 17 16" fill="none" xmlns="http://www.w3.org/2000/svg">
<path d="M4.40183 15.9999V5.67171H0.971944V15.9999H4.40219H4.40183ZM2.68761 4.26181C3.88343 4.26181 4.62791 3.46873 4.62791 2.4776C4.60552 1.46388 3.88343 0.692932 2.71035 0.692932C1.53646 0.692932 0.769775 1.46388 0.769775 2.47751C0.769775 3.46864 1.51399 4.26172 2.66513 4.26172H2.68734L2.68761 4.26181ZM6.30032 15.9999H9.72994V10.2328C9.72994 9.92453 9.75233 9.61545 9.84294 9.39527C10.0908 8.77828 10.6551 8.1396 11.6028 8.1396C12.8436 8.1396 13.3402 9.08664 13.3402 10.4752V15.9999H16.7698V10.078C16.7698 6.90579 15.0779 5.42957 12.8214 5.42957C10.9713 5.42957 10.1588 6.46453 9.70738 7.16943H9.73021V5.67207H6.3005C6.34527 6.64098 6.30023 16.0003 6.30023 16.0003L6.30032 15.9999Z" fill="white" fill-opacity="0.75"/>
</svg>
