<svg width="17" height="15" viewBox="0 0 17 15" fill="none" xmlns="http://www.w3.org/2000/svg">
<path d="M1.75071 6.47092C1.75071 6.47092 8.82713 3.49045 11.2813 2.44096C12.2222 2.02119 15.4127 0.677835 15.4127 0.677835C15.4127 0.677835 16.8852 0.0901669 16.7625 1.51742C16.7216 2.10515 16.3944 4.16207 16.0672 6.38697C15.5763 9.53539 15.0445 12.9776 15.0445 12.9776C15.0445 12.9776 14.9627 13.9432 14.2674 14.1111C13.572 14.279 12.4266 13.5234 12.2222 13.3554C12.0585 13.2295 9.15434 11.3405 8.09084 10.4169C7.8045 10.1651 7.47729 9.66135 8.13171 9.07363C9.60429 7.68832 11.3631 5.9672 12.4266 4.87576C12.9175 4.37199 13.4083 3.19659 11.3631 4.62384C8.45898 6.68083 5.59569 8.61186 5.59569 8.61186C5.59569 8.61186 4.94121 9.03162 3.7141 8.6538C2.48694 8.27605 1.05529 7.77227 1.05529 7.77227C1.05529 7.77227 0.0736533 7.1426 1.75071 6.47092Z" fill="white" fill-opacity="0.75"/>
</svg>
