<svg width="17" height="14" viewBox="0 0 17 14" fill="none" xmlns="http://www.w3.org/2000/svg">
<path d="M16.6986 2.33196C16.1811 2.55489 15.6369 2.71013 15.0797 2.79384C15.3402 2.74914 15.7236 2.27981 15.8761 2.08984C16.108 1.80329 16.2846 1.47616 16.3972 1.12509C16.3972 1.09902 16.4232 1.06177 16.3972 1.04314C16.384 1.03597 16.3693 1.03221 16.3544 1.03221C16.3394 1.03221 16.3247 1.03597 16.3116 1.04314C15.7065 1.37109 15.0626 1.62139 14.3949 1.78812C14.3717 1.79524 14.3469 1.79587 14.3233 1.78997C14.2997 1.78406 14.2782 1.77183 14.261 1.7546C14.209 1.69266 14.1531 1.63418 14.0935 1.57953C13.8212 1.33534 13.5123 1.13548 13.178 0.987268C12.7268 0.801983 12.2394 0.72174 11.7526 0.7526C11.2803 0.782454 10.8192 0.909246 10.398 1.12509C9.98314 1.35265 9.61857 1.6618 9.32615 2.03396C9.01855 2.41701 8.79648 2.86155 8.67487 3.33768C8.57459 3.79057 8.56321 4.25865 8.64137 4.71589C8.64137 4.79411 8.64137 4.80529 8.57438 4.79411C5.92089 4.403 3.74376 3.4606 1.96484 1.43798C1.88669 1.34858 1.84575 1.34858 1.78248 1.43798C1.00839 2.61505 1.38427 4.4775 2.35189 5.39755C2.48214 5.52047 2.61612 5.63967 2.75754 5.75141C2.3139 5.71989 1.88109 5.59956 1.48476 5.39755C1.41033 5.34912 1.36939 5.3752 1.36567 5.46459C1.35512 5.58853 1.35512 5.71315 1.36567 5.83708C1.44332 6.43105 1.67719 6.99373 2.04337 7.46756C2.40954 7.94139 2.89488 8.30939 3.44976 8.53391C3.58502 8.5919 3.72596 8.63559 3.8703 8.66428C3.45959 8.74521 3.03836 8.7578 2.62356 8.70153C2.53425 8.68291 2.50075 8.73133 2.53425 8.817C3.08132 10.307 4.26851 10.7614 5.13936 11.0147C5.25845 11.0333 5.37754 11.0333 5.51152 11.0631C5.51152 11.0631 5.51152 11.0631 5.48919 11.0855C5.2324 11.5548 4.19407 11.8714 3.71771 12.0353C2.84823 12.3479 1.92119 12.4674 1.00095 12.3855C0.855809 12.3631 0.822315 12.3668 0.785099 12.3855C0.747883 12.4041 0.785099 12.4451 0.826036 12.4823C1.01212 12.6052 1.19819 12.7132 1.39172 12.8175C1.96784 13.1321 2.57691 13.3819 3.20785 13.5625C6.47541 14.4639 10.1523 13.8009 12.6049 11.3611C14.5326 9.44651 15.21 6.80556 15.21 4.16088C15.21 4.06031 15.3328 4.00071 15.4035 3.94856C15.8912 3.56821 16.3212 3.11902 16.68 2.61505C16.7421 2.53992 16.774 2.44427 16.7693 2.34686C16.7693 2.29098 16.7693 2.30216 16.6986 2.33196Z" fill="white" fill-opacity="0.75"/>
</svg>
